<svg class="svg_logo_sub_paper" viewBox="0.5 220.5 300 80" xmlns="http://www.w3.org/2000/svg">
<path style="fill:#fff" d="M277.976 266.674c11.679-.501 21.523-8.343 21.523-22.358 0-14.183-10.179-22.691-23.694-22.691h-29.032v77.752h6.676V227.63h21.856c10.345 0 17.187 6.841 17.187 16.686 0 9.844-6.842 16.853-17.187 16.853H258.62l.166 6.007h11.847l21.858 32.201h8.009l-22.524-32.703zm-91.436 32.702h49.221v-6.007h-42.714v-30.868h41.881v-6.006h-41.881V227.63h42.714v-6.006H186.54v77.752zm-32.202-77.752h-29.032v77.752h6.674V227.63h21.858c10.344 0 17.185 6.841 17.185 16.686 0 9.677-6.673 16.685-17.185 16.685h-15.351v6.006h16.018c14.85 0 23.359-10.511 23.359-22.69s-8.51-22.693-23.526-22.693m-75.251 0l-31.868 77.752h7.675l7.675-19.021h35.206l-2.336-6.173H64.738l18.354-45.385 28.198 70.578h7.675l-31.702-77.752h-8.176zm-49.555 0H.5v77.752h6.674V227.63h21.857c10.345 0 17.186 6.841 17.186 16.686 0 9.677-6.674 16.685-17.186 16.685H13.515l.167 6.006h15.851c14.85 0 23.359-10.511 23.359-22.69.167-12.181-8.343-22.693-23.36-22.693"></path></svg>