<?xml version="1.0" encoding="utf-8"?>
<!-- Generator: Adobe Illustrator 19.0.0, SVG Export Plug-In . SVG Version: 6.00 Build 0)  -->
<svg version="1.1" id="Layer_1" xmlns="http://www.w3.org/2000/svg" xmlns:xlink="http://www.w3.org/1999/xlink" x="0px" y="0px"
	 viewBox="-147 380.9 300 80" style="enable-background:new -147 380.9 300 80;" xml:space="preserve">
<style type="text/css">
	.st0{fill:#FFFFFF;}
</style>
<path class="st0" d="M131,647.6c11.7-0.5,21.5-8.3,21.5-22.4c0-14.2-10.2-22.7-23.7-22.7h-29v77.8h6.7v-71.7h21.9
	c10.3,0,17.2,6.8,17.2,16.7c0,9.8-6.8,16.9-17.2,16.9h-16.7l0.2,6h11.8l21.9,32.2h8L131,647.6L131,647.6z M39.5,680.3h49.2v-6H46
	v-30.9h41.9v-6H46v-28.9h42.7v-6H39.5L39.5,680.3L39.5,680.3z M7.3,602.5h-29v77.8h6.7v-71.7H6.8c10.3,0,17.2,6.8,17.2,16.7
	c0,9.7-6.7,16.7-17.2,16.7H-8.5v6h16c14.9,0,23.4-10.5,23.4-22.7S22.4,602.5,7.3,602.5 M-67.9,602.5l-31.9,77.8h7.7l7.7-19h35.2
	l-2.3-6.2h-30.7l18.4-45.4l28.2,70.6h7.7l-31.7-77.8L-67.9,602.5L-67.9,602.5z M-117.5,602.5h-29v77.8h6.7v-71.7h21.9
	c10.3,0,17.2,6.8,17.2,16.7c0,9.7-6.7,16.7-17.2,16.7h-15.5l0.2,6h15.9c14.8,0,23.4-10.5,23.4-22.7
	C-93.9,613-102.5,602.5-117.5,602.5"/>
</svg>
